<svg xmlns="http://www.w3.org/2000/svg"  width="148px" height="50px" viewBox="0 0 222 75"><g fill="none">
<path
     style="fill:#000000;fill-opacity:1;stroke:none;stroke-width:0.183471;stroke-opacity:1"
     d="M 5.0581911,42.176678 C 4.1578699,39.926554 3.9641005,36.835468 4.573905,34.451155 c 0.90412,-3.535075 3.1919051,-6.375283 6.482415,-8.0477 5.118914,-2.601712 11.266218,-1.322385 15.072475,3.136759 1.839477,2.155003 2.859635,4.973538 2.859635,7.900717 0,1.775104 -0.431834,4.01983 -0.971456,5.049731 -0.253423,0.483679 -0.261785,0.472915 -0.93038,-1.197554 -0.371061,-0.92709 -0.627845,-1.76136 -0.570633,-1.853932 0.05721,-0.09257 0.104024,-0.949368 0.104024,-1.903991 0,-5.627893 -4.344733,-10.014524 -9.91887,-10.014524 -3.00618,0 -5.475037,1.042065 -7.4033697,3.124842 -1.9941581,2.153876 -2.7377097,4.202608 -2.6613874,7.333009 0.044176,1.811918 0.010691,2.016433 -0.563251,3.440083 -0.3356209,0.8325 -0.6332561,1.513636 -0.6614115,1.513636 -0.028156,0 -0.1872324,-0.339999 -0.3535043,-0.755553 z"
     id="path6277" />
  <path
     style="fill:#000000;fill-opacity:1;stroke:none;stroke-width:0.183471;stroke-opacity:1"
     d="m 12.710011,41.056933 c -2.133902,-2.205154 -1.752752,-6.118423 0.763297,-7.836761 1.028868,-0.702666 2.019016,-0.993003 3.314295,-0.971837 2.901706,0.04742 5.047757,2.283363 5.043663,5.254936 -0.0021,1.496502 -0.506287,2.794999 -1.417398,3.650133 L 19.865624,41.667966 19.44273,40.62602 c -0.485778,-1.196878 -0.485575,-1.192145 -0.09643,-2.24769 1.067675,-2.896072 -2.799572,-5.118804 -4.873257,-2.800944 -0.806734,0.901726 -0.991189,1.777951 -0.596779,2.834915 0.36717,0.983968 0.357577,1.125865 -0.153983,2.27769 l -0.430142,0.968504 z"
     id="path6279" />
  <path
     style="fill:#000000;fill-opacity:1;stroke:none;stroke-width:0.183471;stroke-opacity:1"
     d="M 46.418182,43.023967 V 36.143802 H 44.4 42.381818 V 34.859504 33.575207 H 44.4 46.418182 v -3.485951 -3.48595 h 1.467768 1.467769 v 3.48595 3.485951 h 2.018182 2.018182 v 1.284297 1.284298 h -2.018182 -2.018182 v 6.880165 6.880165 H 47.88595 46.418182 Z"
     id="path6281" />
  <path
     style="fill:#000000;fill-opacity:1;stroke:none;stroke-width:0.183471;stroke-opacity:1"
     d="m 63.998672,49.650391 c -1.33312,-0.548314 -2.357128,-1.363335 -3.075435,-2.447782 -1.034484,-1.561786 -1.111667,-2.128092 -1.111667,-8.15657 v -5.470832 h 1.363605 1.363605 l 0.0583,5.372094 c 0.05803,5.347596 0.06043,5.376246 0.526999,6.282206 0.283438,0.550369 0.779131,1.128337 1.254054,1.462203 0.720788,0.506704 0.910917,0.552092 2.312729,0.552092 1.401617,0 1.592113,-0.04546 2.313606,-0.552092 0.476271,-0.334439 0.971007,-0.910888 1.254932,-1.462203 0.466566,-0.90596 0.468969,-0.93461 0.526999,-6.282206 l 0.0583,-5.372094 h 1.363605 1.363605 v 5.379096 c 0,5.931671 -0.09196,6.599103 -1.135795,8.243084 -0.68833,1.084087 -1.699549,1.897025 -3.051307,2.453004 -1.477153,0.607554 -3.908974,0.607554 -5.386127,0 z"
     id="path6283" />
  <path
     style="fill:#000000;fill-opacity:1;stroke:none;stroke-width:0.183471;stroke-opacity:1"
     d="m 81.644628,41.739669 v -8.164462 h 1.376033 1.376033 v 0.917355 c 0,0.504545 0.05358,0.917355 0.119069,0.917355 0.06549,0 0.41088,-0.300467 0.767537,-0.667705 0.356657,-0.367238 1.096249,-0.872707 1.643537,-1.123264 0.859597,-0.393536 1.185979,-0.444231 2.397339,-0.372364 1.464073,0.08686 2.147507,0.342855 3.136082,1.174686 l 0.585239,0.492446 -0.940158,0.951983 -0.940157,0.951983 -0.846743,-0.428676 c -1.610731,-0.815455 -3.794688,-0.439546 -4.869852,0.838215 -0.930698,1.106071 -1.051893,1.978606 -1.051893,7.573021 v 5.10389 h -1.376033 -1.376033 z"
     id="path6285" />
  <path
     style="fill:#000000;fill-opacity:1;stroke:none;stroke-width:0.183471;stroke-opacity:1"
     d="m 101.27603,43.023967 v -6.880165 h -2.018179 -2.018182 v -1.284298 -1.284297 h 1.992591 1.99259 l 0.092,-2.083891 c 0.0751,-1.702624 0.17553,-2.266415 0.54869,-3.081513 0.60541,-1.322383 1.37612,-2.169748 2.56278,-2.817649 0.82599,-0.450987 1.23227,-0.544222 2.6456,-0.607136 1.8323,-0.08156 2.71053,0.174902 4.02054,1.174095 l 0.65094,0.496501 -0.96896,0.873498 -0.96896,0.873497 -0.64215,-0.394033 c -0.86899,-0.533225 -2.58229,-0.545072 -3.48595,-0.0241 -1.06137,0.611885 -1.46777,1.662637 -1.46777,3.7949 v 1.795835 h 2.5686 2.56859 v 1.284297 1.284298 h -2.56859 -2.5686 v 6.880165 6.880165 h -1.46777 -1.46777 z"
     id="path6287" />
  <path
     style="fill:#000000;fill-opacity:1;stroke:none;stroke-width:0.183471;stroke-opacity:1"
     d="m 119.8963,49.668059 c -4.07142,-1.550056 -6.28809,-5.618565 -5.38933,-9.891673 1.30569,-6.207788 9.04498,-8.727553 13.84949,-4.509131 l 0.64602,0.567208 -0.96628,0.978432 -0.96628,0.978433 -0.46678,-0.436636 c -0.97685,-0.913772 -2.00461,-1.273383 -3.67752,-1.286761 -1.89006,-0.01511 -3.12577,0.458338 -4.14724,1.588983 -1.07286,1.187534 -1.43451,2.188398 -1.44208,3.99102 -0.006,1.345282 0.0642,1.703523 0.5083,2.607938 0.64694,1.317429 1.89849,2.441688 3.12293,2.805309 1.85752,0.551623 3.96252,0.225643 5.43614,-0.84184 l 0.78604,-0.5694 0.89431,0.880872 0.89432,0.880871 -0.59537,0.615798 c -0.32745,0.338689 -1.21015,0.920056 -1.96155,1.291927 -1.29571,0.641248 -1.4708,0.678511 -3.39421,0.722329 -1.74078,0.03966 -2.18425,-0.01327 -3.13091,-0.373679 z"
     id="path6289" />
  <path
     style="fill:#000000;fill-opacity:1;stroke:none;stroke-width:0.183471;stroke-opacity:1"
     d="m 140.07812,49.668059 c -2.85887,-1.088419 -4.84272,-3.409286 -5.41929,-6.339929 -1.04272,-5.300035 2.88321,-10.119866 8.243,-10.119866 5.26573,0 8.97487,4.218957 8.43301,9.592111 -0.26903,2.667815 -2.12791,5.233145 -4.72048,6.514463 -1.30777,0.646334 -1.47969,0.683031 -3.40534,0.7269 -1.74077,0.03966 -2.18424,-0.01327 -3.1309,-0.373679 z m 4.91208,-2.698878 c 1.15802,-0.433269 2.3393,-1.534713 2.9285,-2.730561 0.58603,-1.18944 0.60178,-3.934945 0.0297,-5.1721 -0.47992,-1.037769 -1.49886,-2.047255 -2.61591,-2.591635 -1.20885,-0.589119 -3.41546,-0.588848 -4.70186,5.79e-4 -2.09475,0.959809 -3.10212,2.639508 -3.10212,5.17247 0,1.996799 0.47324,3.15031 1.77123,4.317316 1.50249,1.350868 3.71838,1.7418 5.69051,1.003931 z"
     id="path6291" />
  <path
     style="fill:#000000;fill-opacity:1;stroke:none;stroke-width:0.183471;stroke-opacity:1"
     d="m 162.86085,49.638712 c -1.49703,-0.615532 -2.44241,-1.313691 -3.3672,-2.486646 -3.34181,-4.238603 -1.90417,-10.914392 2.85498,-13.257313 1.13031,-0.556451 1.33243,-0.594753 3.13842,-0.594753 1.7068,0 2.05087,0.05652 2.97153,0.488108 0.57267,0.268459 1.41893,0.836267 1.88058,1.261796 l 0.83935,0.773689 V 34.6994 33.575207 h 1.46777 1.46777 v 8.164462 8.164463 h -1.46777 -1.46777 v -1.100826 c 0,-0.605455 -0.0498,-1.100827 -0.11064,-1.100827 -0.0609,0 -0.51894,0.367091 -1.01797,0.815758 -1.2628,1.135364 -2.51943,1.570462 -4.52001,1.565012 -1.26037,-0.0034 -1.82493,-0.09746 -2.66904,-0.444537 z m 5.77063,-2.815561 c 1.77689,-0.92826 2.7305,-2.735671 2.7305,-5.175217 0,-1.725906 -0.42407,-2.99014 -1.3342,-3.977516 -1.01089,-1.09669 -1.9736,-1.562223 -3.4498,-1.668197 -1.84884,-0.132726 -3.10841,0.304279 -4.29388,1.489749 -1.1634,1.163397 -1.59089,2.28771 -1.58495,4.168413 0.005,1.677647 0.4072,2.867755 1.31775,3.902204 1.11315,1.264606 2.29767,1.77295 4.13123,1.77295 1.28825,0 1.64241,-0.07307 2.48335,-0.512386 z"
     id="path6293" />
  <path
     style="fill:#000000;fill-opacity:1;stroke:none;stroke-width:0.183471;stroke-opacity:1"
     d="m 187.04876,49.697962 c -2.45038,-0.839961 -4.49206,-2.887581 -5.23825,-5.253485 -0.53118,-1.684166 -0.53081,-4.112537 8.5e-4,-5.640345 0.77554,-2.228649 2.2623,-3.840123 4.5159,-4.89471 1.68638,-0.789152 4.02471,-0.931723 5.90656,-0.360129 1.15803,0.351742 3.3476,1.600838 3.64247,2.077938 0.0647,0.104632 -0.29067,0.598483 -0.78963,1.097445 l -0.90721,0.907205 -0.94959,-0.639028 c -2.23708,-1.505443 -5.46353,-1.279183 -7.25122,0.508503 -1.23317,1.233177 -1.49847,1.967318 -1.49847,4.146578 0,1.790696 0.0382,1.995391 0.54196,2.904846 0.59218,1.069051 1.21224,1.666702 2.3722,2.286474 0.62589,0.334412 1.05381,0.403534 2.49823,0.403534 1.83846,0 2.7887,-0.311118 3.81066,-1.247647 l 0.41644,-0.38163 0.91372,0.899984 c 0.50255,0.494991 0.91373,0.96518 0.91373,1.044863 0,0.353545 -2.3289,1.81992 -3.43106,2.160343 -1.62262,0.501174 -3.97072,0.492267 -5.46729,-0.02074 z"
     id="path6295" />
  <path
     style="fill:#000000;fill-opacity:1;stroke:none;stroke-width:0.183471;stroke-opacity:1"
     d="M 202.91901,37.527552 V 25.135537 h 1.46777 1.46777 v 5.244518 5.244519 l 0.83179,-0.732174 c 1.46035,-1.285456 2.2965,-1.587861 4.39713,-1.590284 1.4963,-0.0017 1.99294,0.07101 2.69256,0.394345 1.21498,0.561507 2.44352,1.763618 3.03689,2.971543 l 0.50857,1.035302 0.055,6.100413 0.055,6.100413 h -1.3687 -1.3687 l -0.0684,-5.366529 c -0.0591,-4.637161 -0.11257,-5.466271 -0.39319,-6.100413 -0.71537,-1.616569 -2.05585,-2.466186 -3.90147,-2.47283 -1.85758,-0.0067 -3.11861,0.619698 -3.95462,1.964357 -0.42072,0.6767 -0.43222,0.815224 -0.52193,6.287812 l -0.0917,5.595868 -1.4219,0.05358 -1.4219,0.05359 z"
     id="path6297" />
  <path
     style="fill:#00af66;fill-opacity:1;stroke:none;stroke-width:0.183471;stroke-opacity:1"
     d="M 11.027762,48.60757 C 10.187954,48.187232 9.0790118,47.436891 8.5149765,46.907349 L 7.5053914,45.959504 8.4549748,43.613436 c 0.5222709,-1.290337 0.9710241,-2.322362 0.9972293,-2.293388 0.1659072,0.183435 3.2277939,7.890863 3.1612099,7.957447 -0.04535,0.04535 -0.758891,-0.256119 -1.585652,-0.669925 z"
     id="path6368" />
  <path
     style="fill:#00af66;fill-opacity:1;stroke:none;stroke-width:0.183471;stroke-opacity:1"
     d="m 13.90886,49.660693 -0.677089,-0.215238 1.641357,-4.022119 c 0.902746,-2.212165 1.669667,-4.050428 1.704267,-4.085028 0.0346,-0.0346 0.809337,1.788491 1.721638,4.051315 l 1.65873,4.114225 -0.794837,0.200142 c -1.034026,0.260371 -4.385685,0.232751 -5.254066,-0.0433 z"
     id="path6439" />
  <path
     style="fill:#00af66;fill-opacity:1;stroke:none;stroke-width:0.183471;stroke-opacity:1"
     d="m 20.54876,49.238477 c 0,-0.185188 3.166198,-7.971484 3.219525,-7.917439 0.02805,0.02843 0.476342,1.083714 0.996203,2.345078 l 0.945201,2.293388 -0.981084,0.917356 c -1.123273,1.050307 -4.179845,2.777274 -4.179845,2.361617 z"
     id="path6441" />
</g></svg>