<?xml version="1.0" encoding="UTF-8" standalone="no"?>
<svg
   width="84"
   height="85"
   viewBox="0 0 84 85"
   fill="none"
   version="1.1"
   id="svg8"
   sodipodi:docname="iso_white_green.svg"
   inkscape:version="1.2.2 (732a01da63, 2022-12-09)"
   xmlns:inkscape="http://www.inkscape.org/namespaces/inkscape"
   xmlns:sodipodi="http://sodipodi.sourceforge.net/DTD/sodipodi-0.dtd"
   xmlns="http://www.w3.org/2000/svg"
   xmlns:svg="http://www.w3.org/2000/svg">
  <defs
     id="defs12" />
  <sodipodi:namedview
     id="namedview10"
     pagecolor="#ffffff"
     bordercolor="#000000"
     borderopacity="0.25"
     inkscape:showpageshadow="2"
     inkscape:pageopacity="0.0"
     inkscape:pagecheckerboard="0"
     inkscape:deskcolor="#d1d1d1"
     showgrid="false"
     inkscape:zoom="9.7529412"
     inkscape:cx="38.706273"
     inkscape:cy="42.551267"
     inkscape:window-width="1920"
     inkscape:window-height="1009"
     inkscape:window-x="-8"
     inkscape:window-y="-8"
     inkscape:window-maximized="1"
     inkscape:current-layer="svg8" />
  <path
     d="M65.7376 53.6617L72.7257 70.8843C67.7062 76.329 61.2621 80.4403 53.9851 82.6268C53.8825 82.6577 53.7797 82.6881 53.6768 82.7182C49.9429 83.8087 45.9933 84.3935 41.9072 84.3935C37.8079 84.3935 33.8462 83.8049 30.1018 82.7077C29.9955 82.6766 29.8893 82.645 29.7833 82.613C22.5118 80.419 16.074 76.3024 11.061 70.8544L18.0367 53.6624L29.7833 82.613C29.8893 82.645 29.9955 82.6766 30.1018 82.7077L41.8872 53.6617L53.6768 82.7182C53.7797 82.6881 53.8825 82.6577 53.9851 82.6268L65.7376 53.6617Z"
     fill="#00AF66"
     id="path2" />
  <path
     d="M49.1413 48.5347C50.5115 46.8976 51.3363 44.7884 51.3363 42.4866C51.3363 37.279 47.1147 33.0574 41.9072 33.0574C36.6996 33.0574 32.478 37.279 32.478 42.4866C32.478 44.7733 33.2921 46.8699 34.6462 48.5025L31.1501 57.1189C26.6604 53.8128 23.7474 48.4899 23.7474 42.4866C23.7474 32.4572 31.8778 24.3268 41.9072 24.3268C51.9365 24.3268 60.0669 32.4572 60.0669 42.4866C60.0669 48.5036 57.1406 53.8371 52.6335 57.1415L49.1413 48.5347Z"
     fill="black"
     id="path4"
     style="fill:#ffffff" />
  <path
     d="M74.2493 49.9126C74.7953 47.5251 75.0837 45.0393 75.0837 42.4863C75.0837 24.1634 60.2301 9.30976 41.9072 9.30976C23.5843 9.30976 8.73066 24.1634 8.73066 42.4863C8.73066 45.0169 9.01399 47.4813 9.55066 49.8496L4.70369 61.7953C1.69845 56.0167 0 49.4499 0 42.4863C0 19.3416 18.7625 0.579102 41.9072 0.579102C65.0519 0.579102 83.8144 19.3416 83.8144 42.4863C83.8144 49.4704 82.1059 56.0554 79.0841 61.8463C79.0855 61.8437 79.0868 61.841 79.0882 61.8384L74.2493 49.9126Z"
     fill="black"
     id="path6"
     style="fill:#ffffff" />
</svg>
